<svg xmlns="http://www.w3.org/2000/svg" version="1.1" xmlns:xlink="http://www.w3.org/1999/xlink" xmlns:svgjs="http://svgjs.com/svgjs" width="512" height="512" x="0" y="0" viewBox="0 0 60 60" style="enable-background:new 0 0 512 512" xml:space="preserve" class=""><g><path xmlns="http://www.w3.org/2000/svg" d="m10.676 45.47a.5.5 0 0 1 -.339-.868l.609-.56-2.08 1.2a.5.5 0 0 1 -.6-.785l2.64-2.657-3.666 2.115a.5.5 0 0 1 -.594-.8l3.108-2.934-3.191 1.845a.5.5 0 0 1 -.563-.818l1.8-1.485-1.656.956a.5.5 0 0 1 -.581-.808l2.478-2.186-2.417 1.389a.5.5 0 0 1 -.577-.811l2.184-1.886-2.084 1.2a.5.5 0 0 1 -.559-.825l.788-.621-.582.336a.5.5 0 0 1 -.59-.8l2.683-2.483-2.651 1.53a.5.5 0 0 1 -.592-.8l2.705-2.541-2.683 1.555a.5.5 0 0 1 -.586-.8l2.381-2.168-2.315 1.34a.5.5 0 0 1 -.584-.8l2.225-2-2.141 1.224a.5.5 0 0 1 -.556-.824l.175-.135a.5.5 0 0 1 -.5-.852l1.05-.861-.86.5a.5.5 0 0 1 -.566-.819l.977-.8-.783.452a.5.5 0 0 1 -.569-.817l1.123-.933-.846.487a.5.5 0 0 1 -.577-.81l1.473-1.275-.318.183a.5.5 0 0 1 -.5-.865l4.867-2.811a.5.5 0 0 1 .578.811l-1.479 1.267 1.388-.8a.5.5 0 0 1 .569.818l-1.122.932 1-.577a.5.5 0 0 1 .566.819l-.978.8.844-.486a.5.5 0 0 1 .567.819l-1.05.862.92-.532a.5.5 0 0 1 .557.827l-.153.12a.5.5 0 0 1 .548.823l-2.225 2 2.221-1.277a.5.5 0 0 1 .586.8l-2.381 2.167 2.4-1.383a.5.5 0 0 1 .593.8l-2.7 2.54 2.773-1.6a.5.5 0 0 1 .59.8l-2.692 2.481 2.744-1.583a.5.5 0 0 1 .56.825l-.786.619.637-.367a.5.5 0 0 1 .577.812l-2.188 1.883 2.158-1.245a.5.5 0 0 1 .581.808l-2.477 2.187 2.491-1.437a.5.5 0 0 1 .568.818l-1.795 1.486 1.725-1a.5.5 0 0 1 .594.795l-3.107 2.934 3.224-1.861a.5.5 0 0 1 .6.785l-2.641 2.666 2.749-1.587a.5.5 0 0 1 .589.8l-.61.56.442-.254a.5.5 0 0 1 .743.512l-.234 1.48.209-.12a.5.5 0 1 1 .5.865l-1.12.646a.5.5 0 0 1 -.743-.512l.239-1.481-3.459 1.991a.49.49 0 0 1 -.25.07z" fill="#aac7c8" data-original="#aac7c8" class=""></path><path xmlns="http://www.w3.org/2000/svg" d="m45.581 45.5a.5.5 0 0 1 -.3-.9l2.119-1.568-2.827 1.632a.5.5 0 0 1 -.55-.833l4.531-3.4-3.043 1.759a.5.5 0 0 1 -.538-.84l1.866-1.319-.652.376a.5.5 0 0 1 -.544-.837l3.081-2.241-1.755 1.013a.5.5 0 0 1 -.55-.833l3.965-2.968-2.528 1.459a.5.5 0 0 1 -.544-.837l2.7-1.963-1.4.81a.5.5 0 0 1 -.557-.827l4.791-3.734-3.209 1.851a.5.5 0 0 1 -.562-.824l4.1-3.263-2.549 1.471a.5.5 0 0 1 -.575-.813l3.134-2.683-1.58.912a.5.5 0 0 1 -.616-.773l2.038-2.2-.38.219a.5.5 0 0 1 -.7-.654l1.017-2.064c-.01-.013-.018-.026-.027-.039a.5.5 0 0 1 .184-.684l.408-.235a.5.5 0 0 1 .7.654l-.656 1.333 1.827-1.051a.5.5 0 0 1 .617.773l-2.038 2.2 3.391-1.958a.5.5 0 0 1 .575.813l-3.133 2.682 3.688-2.13a.5.5 0 0 1 .562.825l-4.1 3.263 3.63-2.1a.5.5 0 0 1 .558.827l-4.796 3.739 3.41-1.969a.5.5 0 0 1 .544.837l-2.7 1.959 1.545-.891a.5.5 0 0 1 .55.833l-3.969 2.97 2.7-1.561a.5.5 0 0 1 .544.837l-3.076 2.238 1.9-1.1a.5.5 0 0 1 .539.841l-1.877 1.326.8-.459a.5.5 0 0 1 .549.833l-4.528 3.4 3.225-1.861a.5.5 0 0 1 .547.834l-2.113 1.564.982-.566a.5.5 0 0 1 .583.8l-1.928 1.724.662-.382a.5.5 0 0 1 .606.784l-.783.793a.493.493 0 0 1 .186.185.5.5 0 0 1 -.183.682l-2.053 1.186a.5.5 0 0 1 -.645-.127.5.5 0 0 1 .039-.657l.131-.132-1.649.951a.5.5 0 0 1 -.583-.806l1.925-1.72-4.41 2.546a.5.5 0 0 1 -.243.068z" fill="#aac7c8" data-original="#aac7c8" class=""></path><path xmlns="http://www.w3.org/2000/svg" d="m27.872 10.491a.5.5 0 0 1 -.333-.872l3.1-2.773-5.359 3.092a.5.5 0 0 1 -.6-.792l2.772-2.7-2.172 1.254a.5.5 0 0 1 -.633-.754l.9-1.067-.264.152a.5.5 0 0 1 -.726-.585l.222-.7a.491.491 0 0 1 -.178-.181.5.5 0 0 1 .182-.682l.5-.29a.5.5 0 0 1 .727.585l-.108.336 1.607-.928a.5.5 0 0 1 .633.754l-.9 1.067 3.17-1.83a.5.5 0 0 1 .6.791l-2.774 2.7 6.075-3.507a.5.5 0 0 1 .584.805l-3.097 2.78 2.929-1.691a.5.5 0 0 1 .625.765l-1.585 1.789.97-.561a.5.5 0 0 1 .655.728l-.309.422a.5.5 0 0 1 .16.924l-1.532.885a.5.5 0 0 1 -.654-.727l.134-.184-1.59.918a.5.5 0 0 1 -.624-.765l1.585-1.79-4.442 2.565a.489.489 0 0 1 -.25.067z" fill="#aac7c8" data-original="#aac7c8" class=""></path><path xmlns="http://www.w3.org/2000/svg" d="m6.03 14.361a.5.5 0 0 1 -.28-.914l.082-.055-.1.056a.5.5 0 0 1 -.532-.848l1-.688-1.061.612a.5.5 0 0 1 -.538-.84l2.48-1.753-2.635 1.525a.5.5 0 0 1 -.669-.159.5.5 0 0 1 .123-.677l3.878-2.844-4.143 2.393a.5.5 0 0 1 -.535-.842l2.225-1.568-2.04 1.177a.5.5 0 0 1 -.561-.825l4.259-3.392a.5.5 0 0 1 -.525-.241.5.5 0 0 1 .183-.678l5.499-3.18a.5.5 0 0 1 .561.824l-4.112 3.275 5.849-3.377a.5.5 0 0 1 .539.842l-2.229 1.569 2.463-1.422a.5.5 0 0 1 .546.836l-3.881 2.846 4.168-2.407a.5.5 0 0 1 .538.841l-2.476 1.753 2.635-1.521a.5.5 0 0 1 .533.845l-1 .69 1.071-.618a.5.5 0 0 1 .53.846l-.626.425a.51.51 0 0 1 .444.2.5.5 0 0 1 -.065.665l-3.641 3.33a.317.317 0 0 1 .023.036.5.5 0 0 1 -.183.682l-1.747 1.009a.5.5 0 0 1 -.588-.8l2.075-1.9-7.287 4.205a.494.494 0 0 1 -.25.067z" fill="#4684aa" data-original="#4684aa"></path><path xmlns="http://www.w3.org/2000/svg" d="m53.089 14.454a.5.5 0 0 1 -.368-.838l.584-.636-1.546.892a.5.5 0 0 1 -.573-.814l1.182-1-2.232 1.289a.5.5 0 0 1 -.567-.82l2.125-1.739-3.4 1.961a.5.5 0 0 1 -.545-.836l.722-.528-1.408.811a.5.5 0 0 1 -.556-.827l2.393-1.859-2.822 1.629a.5.5 0 0 1 -.581-.808l3.563-3.142-4.339 2.505a.5.5 0 0 1 -.563-.823l2.17-1.734-2.6 1.5a.5.5 0 0 1 -.557-.828l1.355-1.05-1.661.959a.5.5 0 0 1 -.58-.808l2.67-2.35-1.669.962a.5.5 0 0 1 -.609-.78l1.993-2.054a.5.5 0 0 1 -.026-.879l2.061-1.191a.5.5 0 0 1 .609.78l-1.422 1.467 2.919-1.684a.5.5 0 0 1 .58.807l-2.668 2.35 3.683-2.127a.5.5 0 0 1 .557.828l-1.358 1.051 1.96-1.131a.5.5 0 0 1 .563.823l-2.17 1.734 2.939-1.7a.5.5 0 0 1 .582.808l-3.565 3.146 4.805-2.77a.5.5 0 0 1 .556.827l-2.387 1.852 3.061-1.768a.5.5 0 0 1 .545.836l-.72.527.746-.429a.5.5 0 0 1 .566.819l-2.126 1.736 1.718-.991a.5.5 0 0 1 .573.815l-1.4 1.19a.494.494 0 0 1 .423.186.5.5 0 0 1 -.023.651l-1.451 1.585a.5.5 0 0 1 -.114.775l-1.342.776a.489.489 0 0 1 -.255.067z" fill="#4684aa" data-original="#4684aa"></path><path xmlns="http://www.w3.org/2000/svg" d="m29.247 59.47a.5.5 0 0 1 -.332-.874l1.905-1.691-4.326 2.5a.5.5 0 0 1 -.653-.136.5.5 0 0 1 .065-.665l2.044-1.872-4.633 2.668a.5.5 0 0 1 -.6-.793l2.184-2.1-4.028 2.333a.5.5 0 0 1 -.613-.777l1.792-1.9-1.772 1.025a.5.5 0 0 1 -.611-.778l.36-.377a.5.5 0 0 1 -.473-.658l.211-.632a.474.474 0 0 1 -.169-.175.5.5 0 0 1 .182-.682l.5-.289a.5.5 0 0 1 .725.591l-.085.253 1.469-.847a.5.5 0 0 1 .611.778l-.194.2 1.707-.985a.5.5 0 0 1 .613.776l-1.792 1.9 4.64-2.679a.5.5 0 0 1 .6.793l-2.186 2.1 5.019-2.9a.5.5 0 0 1 .588.8l-2.044 1.872 4.641-2.679a.5.5 0 0 1 .582.807l-1.905 1.69 4.334-2.5a.5.5 0 0 1 .615.774l-2.349 2.515 3.854-2.224a.5.5 0 0 1 .638.746l-1.461 1.816.811-.467a.5.5 0 1 1 .5.865l-3.14 1.808a.5.5 0 0 1 -.638-.746l1.467-1.811-4.439 2.557a.5.5 0 0 1 -.615-.773l2.348-2.516-5.694 3.289a.49.49 0 0 1 -.253.07z" fill="#aac7c8" data-original="#aac7c8" class=""></path><path xmlns="http://www.w3.org/2000/svg" d="m5.927 14.21a.5.5 0 0 1 -.307-.9l5.289-4.1-5.781 3.338a.5.5 0 0 1 -.559-.826l6.782-5.322a.492.492 0 0 1 -.2-.193.5.5 0 0 1 .183-.683l4.327-2.5a.5.5 0 0 1 .559.826l-5.486 4.3 6.017-3.473a.5.5 0 0 1 .557.827l-5.287 4.1 3.758-2.17a.5.5 0 1 1 .5.866l-10.1 5.832a.5.5 0 0 1 -.252.078z" fill="#3a728b" data-original="#3a728b"></path><path xmlns="http://www.w3.org/2000/svg" d="m39.628 7.913a.5.5 0 0 1 -.25-.934l1.677-.966a.5.5 0 0 1 .5.867l-1.677.967a.5.5 0 0 1 -.25.066z" fill="#c0dadc" data-original="#c0dadc" class=""></path><path xmlns="http://www.w3.org/2000/svg" d="m21.741 55.47a.5.5 0 0 1 -.27-.921l8.769-5.649-10.884 6.288a.5.5 0 0 1 -.523-.852l14.076-9.172-14.615 8.436a.5.5 0 0 1 -.515-.858l6.021-3.742-5.53 3.186a.5.5 0 0 1 -.522-.853l15.187-9.808-16.235 9.375a.5.5 0 0 1 -.513-.857l8.354-5.2-8.707 5.027a.5.5 0 0 1 -.519-.854l16.593-10.576-16.657 9.618a.5.5 0 0 1 -.511-.86l1.687-1.029-1.49.86a.5.5 0 0 1 -.518-.855l17.081-10.803-17.1 9.875a.5.5 0 0 1 -.518-.855l18.618-11.791-18.678 10.782a.5.5 0 0 1 -.51-.86l5.128-3.128-4.961 2.864a.5.5 0 0 1 -.514-.858l13.966-8.651-13.906 8.027a.5.5 0 0 1 -.51-.859l8.259-5.055-8.123 4.69a.5.5 0 0 1 -.513-.858l14.617-9.087-14.571 8.414a.5.5 0 0 1 -.516-.856l16.989-10.68-17 9.814a.5.5 0 0 1 -.511-.86l4.586-2.8-4.415 2.549a.5.5 0 0 1 -.513-.858l11.671-7.251-11.59 6.691a.5.5 0 0 1 -.513-.859l8.581-5.3-8.453 4.882a.5.5 0 0 1 -.513-.858l6.949-4.284-6.812 3.929a.5.5 0 0 1 -.519-.854l16-10.207-16.033 9.254a.5.5 0 0 1 -.52-.854l16.025-10.3-16.077 9.281a.5.5 0 0 1 -.518-.855l7.83-4.954-7.724 4.46a.5.5 0 0 1 -.522-.853l9.455-6.12-9.4 5.43a.5.5 0 0 1 -.516-.856l2.95-1.864-2.775 1.6a.5.5 0 0 1 -.521-.853l5.275-3.413-5.153 2.978a.5.5 0 0 1 -.53-.847l7.375-4.991-7.335 4.238a.5.5 0 0 1 -.528-.848l4.02-2.683-3.883 2.24a.5.5 0 0 1 -.537-.842l5.894-4.141-5.851 3.374a.5.5 0 0 1 -.541-.84l5.9-4.215-5.73 3.313a.5.5 0 0 1 -.531-.847l8.071-5.482a.5.5 0 0 1 .192-.666l5.289-3.053a.5.5 0 0 1 .531.846l-2.187 1.484 2.843-1.64a.5.5 0 0 1 .541.84l-5.905 4.216 6.61-3.817a.5.5 0 0 1 .537.842l-5.9 4.144 7.5-4.328a.5.5 0 0 1 .527.848l-4.02 2.683 6.121-3.528a.5.5 0 0 1 .531.846l-7.376 4.993 10.115-5.84a.5.5 0 0 1 .522.852l-5.272 3.41 7.388-4.264a.5.5 0 0 1 .516.855l-2.959 1.87 4.723-2.726a.5.5 0 0 1 .521.852l-9.449 6.112 12.074-6.971a.5.5 0 0 1 .518.855l-7.834 4.956 12.94-7.47a.5.5 0 0 1 .521.853l-16.021 10.293 17.3-9.989a.5.5 0 0 1 .519.854l-15.992 10.206 17.217-9.94a.5.5 0 0 1 .513.858l-6.941 4.281 7.6-4.387a.5.5 0 0 1 .513.858l-8.583 5.3 9.3-5.37a.5.5 0 0 1 .514.857l-11.688 7.264 12.539-7.239a.5.5 0 0 1 .511.859l-4.586 2.8 5.152-2.97a.5.5 0 0 1 .516.856l-16.987 10.675 18.125-10.464a.5.5 0 0 1 .514.857l-14.624 9.091 15.379-8.879a.5.5 0 0 1 .511.859l-8.26 5.055 7.959-4.595a.5.5 0 0 1 .514.858l-13.973 8.656 12.832-7.408a.5.5 0 0 1 .511.859l-5.1 3.113 4.1-2.368a.5.5 0 0 1 .517.856l-18.634 11.796 17.3-9.989a.5.5 0 0 1 .52.854l-17.074 10.8 15.778-9.11a.5.5 0 0 1 .511.86l-1.7 1.038.741-.428a.5.5 0 0 1 .518.855l-16.594 10.585 15.282-8.823a.5.5 0 0 1 .514.858l-8.348 5.192 7.268-4.195a.5.5 0 0 1 .521.852l-15.197 9.808 13.857-8a.5.5 0 0 1 .515.857l-6 3.739 4.955-2.861a.5.5 0 0 1 .523.852l-14.077 9.173 12.737-7.352a.5.5 0 0 1 .521.854l-8.771 5.646 7.608-4.391a.5.5 0 0 1 .527.848l-9.352 6.25 8.082-4.666a.5.5 0 0 1 .525.851l-4.49 2.952 3.4-1.961a.5.5 0 0 1 .547.835l-6.988 5.152 5.6-3.231a.5.5 0 0 1 .562.824l-4.421 3.519 2.814-1.623a.5.5 0 0 1 .552.831l-2.1 1.593a.532.532 0 0 1 .082.076.5.5 0 0 1 .025.631l-.622.827a.5.5 0 0 1 .187.928l-1.655.955a.5.5 0 0 1 -.649-.733l.465-.618-2.349 1.351a.5.5 0 0 1 -.553-.831l.227-.172-1.737 1a.5.5 0 0 1 -.562-.824l4.42-3.517-7.522 4.344a.5.5 0 0 1 -.546-.835l6.987-5.152-10.372 5.987a.5.5 0 0 1 -.526-.85l4.485-2.95-6.589 3.8a.5.5 0 0 1 -.527-.848l9.353-6.252-12.3 7.1a.5.5 0 0 1 -.247.07z" fill="#c0dadc" data-original="#c0dadc" class=""></path><path xmlns="http://www.w3.org/2000/svg" d="m53.125 14.256a.5.5 0 0 1 -.371-.835l.607-.674-1.176.68a.5.5 0 0 1 -.626-.763l.682-.776-1.3.747a.5.5 0 0 1 -.6-.791l.1-.1-.467.27a.5.5 0 0 1 -.626-.761l.708-.813-1.336.771a.5.5 0 0 1 -.648-.735l.944-1.24-1.778 1.027a.5.5 0 0 1 -.607-.783l.332-.338-.778.448a.5.5 0 0 1 -.653-.729l.988-1.344-1.874 1.083a.5.5 0 0 1 -.64-.745l.879-1.095-1.64.946a.5.5 0 0 1 -.62-.769l.612-.674-.685.395a.5.5 0 0 1 -.648-.736l1.56-2.036a.5.5 0 0 1 .217-.612l.535-.308a.5.5 0 0 1 .647.737l-.639.836 1.283-.739a.5.5 0 0 1 .62.768l-.611.674 1.177-.68a.5.5 0 0 1 .64.746l-.88 1.1 1.636-.943a.5.5 0 0 1 .653.728l-.987 1.344 1.875-1.084a.5.5 0 0 1 .607.782l-.331.339.773-.446a.5.5 0 0 1 .647.735l-.943 1.237 1.773-1.024a.5.5 0 0 1 .627.761l-.709.814 1.334-.769a.5.5 0 0 1 .6.791l-.1.1.463-.267a.5.5 0 0 1 .626.763l-.681.774 1.289-.744a.5.5 0 0 1 .622.767l-1.297 1.434a.491.491 0 0 1 .121.142.5.5 0 0 1 -.183.682l-1.493.862a.49.49 0 0 1 -.25.07z" fill="#3a728b" data-original="#3a728b"></path><path xmlns="http://www.w3.org/2000/svg" d="m27.339 5.47a.5.5 0 0 1 -.357-.851l1.3-1.317-3.64 2.1a.5.5 0 0 1 -.642-.75l1.49-1.816-2.21 1.276a.5.5 0 0 1 -.653-.728l.657-.9a.5.5 0 0 1 -.219-.931l1.657-.953a.5.5 0 0 1 .653.728l-.535.73 2.53-1.458a.5.5 0 0 1 .63.107.5.5 0 0 1 .006.641l-1.49 1.816 4.447-2.564a.5.5 0 0 1 .606.783l-1.295 1.317 3.639-2.1a.5.5 0 0 1 .606.784l-1.287 1.3 2.793-1.613a.5.5 0 0 1 .657.724l-1.134 1.58 1.172-.675a.5.5 0 0 1 .5.865l-3.18 1.835a.5.5 0 0 1 -.656-.723l1.134-1.577-3.993 2.3a.5.5 0 0 1 -.645-.127.5.5 0 0 1 .04-.657l1.287-1.3-3.618 2.084a.49.49 0 0 1 -.25.07z" fill="#c0dadc" data-original="#c0dadc" class=""></path><path xmlns="http://www.w3.org/2000/svg" d="m29.907 48.466a.5.5 0 0 1 -.3-.9l.873-.649-2.159 1.246a.5.5 0 0 1 -.545-.836l2.442-1.788-3.518 2.027a.5.5 0 0 1 -.531-.845l.333-.227-.818.472a.5.5 0 0 1 -.554-.829l5.98-4.585-6.958 4.016a.5.5 0 0 1 -.53-.846l1.537-1.041-1.671.965a.5.5 0 0 1 -.532-.845l2.46-1.687-2.5 1.441a.5.5 0 0 1 -.544-.837l4.928-3.585-4.874 2.813a.5.5 0 0 1 -.545-.836l4.182-3.062-3.775 2.18a.5.5 0 0 1 -.557-.828l3.978-3.091-3.068 1.771a.5.5 0 0 1 -.6-.791l2.6-2.54a.5.5 0 0 1 -.456-.888l3.413-1.97a.5.5 0 0 1 .648.13.5.5 0 0 1 -.05.661l-2.6 2.534 5.92-3.416a.5.5 0 0 1 .556.827l-3.981 3.095 5.464-3.154a.5.5 0 0 1 .545.836l-4.182 3.062 5.053-2.917a.5.5 0 0 1 .544.837l-4.915 3.586 5.522-3.189a.5.5 0 0 1 .532.845l-2.455 1.684 2.583-1.492a.5.5 0 0 1 .531.847l-1.54 1.043 1.476-.853a.5.5 0 0 1 .554.83l-5.981 4.584 5.872-3.389a.5.5 0 0 1 .532.846l-.436.3a.5.5 0 0 1 .458.876l-2.448 1.784 1.609-.928a.5.5 0 0 1 .549.834l-1.1.815a.493.493 0 0 1 .514.243.5.5 0 0 1 -.183.683l-7.032 4.065a.493.493 0 0 1 -.25.066z" fill="#59787f" data-original="#59787f" class=""></path><path xmlns="http://www.w3.org/2000/svg" d="m29.093 43.322a.5.5 0 0 1 -.383-.821l1.707-2.035-2.677 1.545a.5.5 0 0 1 -.613-.777l1.585-1.671-1.429.825a.5.5 0 0 1 -.62-.769l.817-.9a.5.5 0 0 1 -.115-.914l2.051-1.184a.5.5 0 0 1 .62.769l-.485.536 1.643-.949a.5.5 0 0 1 .614.776l-1.584 1.671 2.147-1.24a.5.5 0 0 1 .633.754l-1.704 2.035 1.351-.78a.5.5 0 0 1 .5.866l-3.8 2.2a.489.489 0 0 1 -.258.063z" fill="#425e66" data-original="#425e66"></path><path xmlns="http://www.w3.org/2000/svg" d="m19.75 26.457a.5.5 0 0 1 -.339-.867l2.9-2.672-4.843 2.8a.5.5 0 0 1 -.558-.826l2.938-2.3-3.724 2.148a.5.5 0 0 1 -.562-.823l4.07-3.254-4.606 2.658a.5.5 0 0 1 -.547-.834l2.5-1.854-2.469 1.425a.5.5 0 0 1 -.554-.829l2.7-2.07-2.372 1.369a.5.5 0 0 1 -.545-.837l.513-.374a.5.5 0 0 1 -.467-.835l2.033-2.109a.5.5 0 0 1 -.4-.911l2.935-1.7a.5.5 0 0 1 .611.779l-2 2.078 4.693-2.709a.5.5 0 0 1 .545.837l-.329.24.938-.542a.5.5 0 0 1 .554.829l-2.7 2.072 3.364-1.943a.5.5 0 0 1 .548.834l-2.5 1.858 2.787-1.609a.5.5 0 0 1 .563.823l-4.068 3.252 4.189-2.418a.5.5 0 0 1 .558.827l-2.943 2.3 2.545-1.47a.5.5 0 0 1 .589.8l-2.9 2.673 1.645-.949a.5.5 0 1 1 .5.865l-5.542 3.201a.489.489 0 0 1 -.25.067z" fill="#59787f" data-original="#59787f" class=""></path><path xmlns="http://www.w3.org/2000/svg" d="m18.978 22.177a.5.5 0 0 1 -.41-.787l.955-1.366-1.219.7a.5.5 0 0 1 -.631-.756l.444-.525a.49.49 0 0 1 -.233-.209.5.5 0 0 1 .182-.682l1.658-.957a.5.5 0 0 1 .63.755l-.056.068.678-.391a.5.5 0 0 1 .659.72l-.955 1.365 1.037-.6a.5.5 0 0 1 .5.865l-2.989 1.725a.5.5 0 0 1 -.25.075z" fill="#425e66" data-original="#425e66"></path><path xmlns="http://www.w3.org/2000/svg" d="m40.485 30.445a.5.5 0 0 1 -.331-.874l1.659-1.47-3.451 1.992a.5.5 0 0 1 -.548-.835l.768-.568-1.441.832a.5.5 0 0 1 -.555-.829l2.766-2.121-3.42 1.975a.5.5 0 0 1 -.532-.847l.06-.042-.165.1a.5.5 0 0 1 -.547-.835l2.457-1.823-2.527 1.459a.5.5 0 0 1 -.557-.829l3.206-2.483-3.018 1.742a.5.5 0 0 1 -.571-.816l3.115-2.6-2.378 1.372a.5.5 0 0 1 -.6-.789l1.79-1.761a.5.5 0 0 1 -.241-.933l2.935-1.7a.5.5 0 0 1 .6.789l-1.59 1.564 3.983-2.3a.5.5 0 0 1 .57.817l-3.111 2.6 4.389-2.532a.5.5 0 0 1 .557.828l-3.21 2.487 3.833-2.212a.5.5 0 0 1 .547.835l-2.464 1.82 2.637-1.52a.5.5 0 0 1 .536.843l-.1.07a.5.5 0 0 1 .489.861l-2.765 2.121 2.449-1.414a.5.5 0 0 1 .548.835l-.776.573.116-.066a.5.5 0 0 1 .581.806l-1.66 1.471.139-.08a.5.5 0 1 1 .5.865l-4.426 2.555a.491.491 0 0 1 -.246.067z" fill="#59787f" data-original="#59787f" class=""></path><path xmlns="http://www.w3.org/2000/svg" d="m39.289 26.332a.5.5 0 0 1 -.4-.8l.812-1.09-1.269.733a.5.5 0 0 1 -.667-.708l.653-.989a.5.5 0 0 1 -.352-.922l1.658-.957a.5.5 0 0 1 .667.708l-.622.942 1.535-.887a.5.5 0 0 1 .65.732l-.813 1.091.555-.321a.5.5 0 1 1 .5.865l-2.657 1.535a.489.489 0 0 1 -.25.068z" fill="#425e66" data-original="#425e66"></path><g xmlns="http://www.w3.org/2000/svg" fill="#262626"><path d="m44.107 50.7c1.6-1.243 1.594-3.534 2.307-5.3 5.478.526 7.625-.465 8.682-5.974 1.488-4.671 3.21-9.328 4.479-14.064.9-3.352-2.915-4.527-5.3-5.681.356-1.748 2-4.138.341-5.586 6-7.779 2.32-8.112-4.254-12.475-4.307-3.39-6.707.992-8.7 4.357-1.666-.232-2.906 1.425-3.968 2.559h-1.964v-3.268c1.922-.011 2.452-1.829 1.779-3.365-.548-1.082-1.638-1.182-2.7-1.182-3.525.147-7.141-.316-10.615.216-2.347.437-3 4.886.082 4.347v3.258c-.564.036-1.136-.074-1.718-.026a.8.8 0 0 1 .094.169.607.607 0 0 0 -.125-.163c-.254.1-.334-.058-.105-.1-1.135-.979-2.252-2.866-3.956-2.375-4.31-8.5-7.082-5.127-13.394-1.084-5.156 2.5-1.806 6.032.354 9.332-1.594 1.565-.227 3.743.244 5.526-5.665 2.149-6.47 4.173-4.051 9.595 1.446 4.543 2.689 9.218 4.357 13.684 1.131 3.029 4.877 2.431 7.552 2.371.811 1.957.735 4.786 2.961 5.735.708.381.73.466.783 1.165a2.521 2.521 0 0 0 2 3.014c-.84 5.02 3.521 3.915 6.858 3.992 3.819 0 7.649.087 11.467 0 2.318.105 3.568-1.923 3.142-4.094 1.957-.523 1.83-1.935 1.992-3.521.195-.64.894-.703 1.376-1.062zm14.113-25.478c-1.75 5.871-3.7 11.735-5.578 17.584-.862 2.63-3.9 1.614-5.987 1.81l7.3-23.877c2.045.899 4.697 2.03 4.265 4.483zm-10.663-23.622c2.291.975 4.273 2.7 6.443 3.961 1.708.753 3.007 2.642 1.772 4.385l-10.685-6.9a2.4 2.4 0 0 1 2.47-1.446zm-3.138 2.478 10.7 6.911q-.757 1.183-1.53 2.356c-3.563-2.338-7.131-4.552-10.691-6.9zm-13.4 4.464h-5.295v-3.263h8.546v3.263zm-7.295-5.495c0-.567.158-1.547.808-1.768 2.492-.011 5.02.008 7.524 0 1.525.016 3.9-.444 4.2 1.629-.006.565.189 1.351-.186 1.813h-.4c-.277-.334-.773-.214-1.145 0h-8.867c-1.446.017-2.058.086-1.934-1.674zm-17.208 10.305-1.625-2.515 10.57-6.831c.565.874 1.124 1.752 1.686 2.626-3.633 2.299-6.887 4.468-10.631 6.72zm-2.628-6.129c1.321-2.3 4.28-3.13 6.3-4.755 1.758-1.576 3.588-1.468 4.733.715l-10.561 6.825a3.127 3.127 0 0 1 -.472-2.785zm3.538 35.493c-1.82-5.77-3.852-11.516-5.519-17.333-.881-2.783 2.116-3.677 4.051-4.67q3.666 11.926 7.3 23.864c-2.205.123-4.983.323-5.832-1.861zm30.416 15.905h-15.029c-1.821.19-2.36-1.618-2.112-3.163q9.291 0 18.58 0c.03 1.278.202 3.163-1.439 3.163zm4.318-7.943c-1.5.626-.461 2.333-1.2 3.389-.4.515-.664.439-1.163.475-5.927.188-11.892-.1-17.83 0-2.387.164-3.342-.153-3.238-2.714-.086-1.27-1.188-1.172-1.953-1.9a3.841 3.841 0 0 1 -.876-1.818c-3.2-10.541-6.463-21.067-9.657-31.61-.725-2.233 2.231-2.994 3.612-4.064l7.975-5.125c1.736-1.527 2.617 2.379 4.386 2.147 5.231.023 10.488.021 15.7 0 1.477-.208 1.931-2.834 3.522-2.417 3.466 2.115 6.691 4.353 10.131 6.5 1.55.8 3.032 1.811 2.018 3.779q-3.987 13.048-7.973 26.1c-1.069 2.387-.785 6.054-3.454 7.258z" fill="#262626" data-original="#262626" class=""></path><path d="m22.558 8.516a.211.211 0 0 0 -.136-.1c.038.033.072.067.105.1z" fill="#262626" data-original="#262626" class=""></path><path d="m32.557 37.372c-2.4-2.078-6.783.013-6.247 3.276 1.424 5.936 10.751 1.252 6.247-3.276zm-.314 3.117c-1.021 4.6-6.654.4-3.687-2.532 1.632-1.481 4.07.614 3.687 2.532z" fill="#262626" data-original="#262626" class=""></path><path d="m19.7 22.361c2.179.166 4.182-2.542 2.23-4.182-3.52-2.465-7.23 3.613-2.23 4.182zm.76-.741.025-.014.028-.011c-.013.005-.161.082-.048.025zm-1.043-3.179c.068-.05.026-.017 0 0zm-.654 1.017a1.424 1.424 0 0 1 .855-1.095c-.032.007.231.009.089 0a1.465 1.465 0 0 1 .345.067 1.821 1.821 0 0 1 .511 3.141c-1.091.339-2.071-1.097-1.795-2.113z" fill="#262626" data-original="#262626" class=""></path><path d="m39.744 26.509c4.739-.045 3.224-6.722-1.061-4.647a2.449 2.449 0 0 0 1.061 4.647zm-.2-3.949-.057.021a.19.19 0 0 1 .056-.021zm-.757.918a1.477 1.477 0 0 1 .427-.712c1.4-.989 2.611 1.222 1.786 2.232a1.149 1.149 0 0 1 -.68.479 1.67 1.67 0 0 1 -.339 0c-.029 0-.193-.05-.046-.006a1.627 1.627 0 0 1 -1.149-1.993z" fill="#262626" data-original="#262626" class=""></path><path d="m43.469 29.363a6.413 6.413 0 0 0 3.239-5.5c.15-4.869-5.654-7.755-9.728-5.463l-11.48-2.2c-6.9-8.13-18.447 4.628-8.265 9.68 1.554 3.7 3.143 7.428 4.7 11.14-4.629 13.772 17.988 15.32 16.665 1.5 1.612-3.055 3.3-6.093 4.869-9.157zm-2.45-10.8c4.554 1.054 5.742 7.659 1.855 10.215a.912.912 0 0 0 -.8.437c-8.631 2.793-10.258-12.051-1.055-10.651zm-25.147 4.764c-2.98-3.648.271-10.183 5.164-8.786 6.761 1.674 4.7 13.052-2.414 10.8a5.97 5.97 0 0 1 -2.75-2.014zm16.545 24.047c-11.944 2.885-13.215-17.017-.85-14.8 6.933 1.72 7.682 12.409.85 14.8zm.441-15.332a9.356 9.356 0 0 0 -9.99 3.358q-1.917-4.551-3.835-9.1c4.813.683 9.4-4.473 7.079-9.054 3.233.637 6.476 1.2 9.7 1.88-5.7 4.2-.853 13.067 5.765 11.017q-1.76 3.3-3.52 6.595a8.16 8.16 0 0 0 -5.199-4.696z" fill="#262626" data-original="#262626" class=""></path></g></g></svg>