<svg width="17" height="14" viewBox="0 0 17 14" fill="none" xmlns="http://www.w3.org/2000/svg">
<path d="M17 11.4843C17 11.8643 16.8952 12.2165 16.7272 12.5265L11.3596 6.40313L16.669 1.66679C16.8756 2.00099 17 2.39355 17 2.81776V11.4843ZM8.50002 7.51495L15.8879 0.923999C15.5847 0.754777 15.2433 0.651001 14.875 0.651001H2.12499C1.75626 0.651001 1.41477 0.754777 1.11282 0.923999L8.50002 7.51495ZM10.5597 7.11621L8.84961 8.64281C8.74958 8.73165 8.62503 8.77602 8.50002 8.77602C8.37494 8.77602 8.25038 8.73165 8.15036 8.64281L6.43988 7.11614L1.00439 13.3177C1.33019 13.5261 1.71201 13.651 2.12495 13.651H14.875C15.2879 13.651 15.6699 13.5261 15.9956 13.3177L10.5597 7.11621ZM0.331023 1.66676C0.124519 2.00095 0 2.39351 0 2.81776V11.4843C0 11.8643 0.104338 12.2166 0.272898 12.5265L5.63986 6.4021L0.331023 1.66676Z" fill="black"/>
</svg>
