<svg width="17" height="20" viewBox="0 0 17 20" fill="none" xmlns="http://www.w3.org/2000/svg">
<path d="M16.9235 15.9421L16.8389 15.6421C16.6385 14.9412 15.9816 14.2102 15.3782 14.0176L13.1447 13.2996C12.5391 13.1058 11.6751 13.3665 11.2319 13.8879L10.4236 14.839C7.48601 13.905 5.18246 11.1943 4.38974 7.73835L5.1981 6.78717C5.64124 6.26573 5.86277 5.25045 5.698 4.53776L5.08898 1.90841C4.9242 1.19702 4.30182 0.424094 3.70729 0.190878L3.45234 0.0900115C2.85668 -0.143205 2.00717 0.0926526 1.56407 0.614045L0.354936 2.03812C0.138925 2.29095 0.000867608 3.01412 0.000867608 3.01676C-0.0414225 7.53393 1.46385 11.886 4.17933 15.0813C6.88814 18.2687 10.5729 20.0374 14.4006 19.9994C14.4206 19.9994 15.053 19.8396 15.269 19.5867L16.4782 18.1639C16.9213 17.6425 17.1217 16.643 16.9235 15.9421Z" fill="black"/>
</svg>
